<?xml version="1.0" standalone="no"?>
<!DOCTYPE svg PUBLIC "-//W3C//DTD SVG 20010904//EN"
 "http://www.w3.org/TR/2001/REC-SVG-20010904/DTD/svg10.dtd">
<svg version="1.0" xmlns="http://www.w3.org/2000/svg"
 width="400.000000pt" height="400.000000pt" viewBox="0 0 400.000000 400.000000"
 preserveAspectRatio="xMidYMid meet">

<g transform="translate(0.000000,400.000000) scale(0.100000,-0.100000)"
fill="#000000" stroke="none">
<path d="M0 2000 l0 -2000 2000 0 2000 0 0 2000 0 2000 -2000 0 -2000 0 0
-2000z m2425 950 l420 -420 -155 -155 -155 -155 -267 267 -268 268 -265 -265
-265 -265 -155 155 -155 155 417 417 c230 230 420 418 423 418 3 0 194 -189
425 -420z m-1335 -1105 l-155 -155 -155 155 -155 155 155 155 155 155 155
-155 155 -155 -155 -155z m2130 0 l-155 -155 -155 155 -155 155 155 155 155
155 155 -155 155 -155 -155 -155z m-1062 302 l152 -152 -155 -155 -155 -155
-155 155 -155 155 152 152 c84 84 155 153 158 153 3 0 74 -69 158 -153z m264
-1099 l-422 -423 -420 420 -420 420 155 155 155 155 265 -265 265 -265 267
268 268 267 155 -155 155 -155 -423 -422z"/>
</g>
</svg>
